<svg width="65" height="48" viewBox="0 0 65 48" fill="none" xmlns="http://www.w3.org/2000/svg">
<path d="M27.0661 33.0906C26.0664 33.0906 25.1683 32.4793 24.8015 31.5493L23.4553 28.1353C23.0886 27.2052 22.1905 26.594 21.1908 26.594H11.7758C10.7594 26.594 9.84995 27.2255 9.49489 28.1779L8.25388 31.5066C7.89881 32.459 6.98938 33.0906 5.97296 33.0906H2.65607C0.917796 33.0906 -0.260303 31.3212 0.410151 29.7174L12.2083 1.49537C12.5869 0.589653 13.4726 0 14.4542 0H18.9382C19.923 0 20.8109 0.593441 21.1874 1.50346L32.8664 29.7255C33.5297 31.3282 32.3517 33.0906 30.6172 33.0906H27.0661ZM18.8237 15.1069C18.0529 12.9712 15.0364 12.9603 14.2503 15.0903L13.5773 16.9137C12.9906 18.5031 14.1667 20.1908 15.861 20.1908H17.192C18.8788 20.1908 20.0543 18.5169 19.4817 16.9302L18.8237 15.1069Z" fill="#647B64"/>
<path d="M65 34.6329C65 36.6271 64.6584 38.4499 63.9753 40.1013C63.3232 41.7215 62.3761 43.1237 61.1341 44.3077C59.892 45.4606 58.386 46.3642 56.6161 47.0185C54.8772 47.6728 52.9365 48 50.7939 48C48.6203 48 46.6641 47.6728 44.9252 47.0185C43.1863 46.3642 41.7114 45.4606 40.5004 44.3077C39.2893 43.1237 38.3578 41.7215 37.7057 40.1013C37.0536 38.4499 36.7276 36.6271 36.7276 34.6329V25.0088C36.7276 23.6644 35.6377 22.5746 34.2933 22.5746H34.259H27.1108C26.0218 22.5746 25.0654 21.8514 24.7686 20.8037L23.725 17.1191C23.2849 15.5653 24.4521 14.0214 26.0671 14.0214H42.2115C43.5559 14.0214 44.6457 15.1113 44.6457 16.4557V33.9786C44.6457 34.8822 44.7544 35.739 44.9718 36.5492C45.2202 37.3593 45.5773 38.0915 46.043 38.7459C46.5399 39.369 47.1764 39.8676 47.9527 40.2415C48.7601 40.6154 49.7227 40.8023 50.8405 40.8023C51.9584 40.8023 52.9054 40.6154 53.6817 40.2415C54.4891 39.8676 55.1411 39.369 55.638 38.7459C56.1348 38.0915 56.4919 37.3593 56.7092 36.5492C56.9266 35.739 57.0353 34.8822 57.0353 33.9786V16.4557C57.0353 15.1113 58.1251 14.0214 59.4696 14.0214H62.5657C63.9101 14.0214 65 15.1113 65 16.4557V34.6329Z" fill="#647B64"/>
</svg>
